<mxfile host="app.diagrams.net" modified="2023-04-25T07:05:27.769Z" agent="Mozilla/5.0 (Windows NT 10.0; Win64; x64) AppleWebKit/537.36 (KHTML, like Gecko) Chrome/112.0.0.0 Safari/537.36" etag="iVuc1y19SlunlftSpxsF" version="21.1.1" type="device">
  <diagram name="Page-1" id="wdt3-1lZ0vIAkVM0plJD">
    <mxGraphModel dx="2638" dy="2322" grid="0" gridSize="10" guides="1" tooltips="1" connect="1" arrows="1" fold="1" page="0" pageScale="1" pageWidth="850" pageHeight="1100" math="0" shadow="0">
      <root>
        <mxCell id="0" />
        <mxCell id="1" parent="0" />
        <mxCell id="ii1_k4aI5tzwlngLvEpe-1" value="Document" style="rounded=0;whiteSpace=wrap;html=1;fontSize=16;" parent="1" vertex="1">
          <mxGeometry x="155" y="-1126" width="120" height="60" as="geometry" />
        </mxCell>
        <mxCell id="79FXgjblU2wBR-eepzPM-279" style="edgeStyle=orthogonalEdgeStyle;shape=connector;rounded=0;orthogonalLoop=1;jettySize=auto;html=1;exitX=0.5;exitY=1;exitDx=0;exitDy=0;entryX=0.5;entryY=0;entryDx=0;entryDy=0;labelBackgroundColor=default;strokeColor=default;fontFamily=Helvetica;fontSize=11;fontColor=default;endArrow=none;endFill=0;" edge="1" parent="1" source="ii1_k4aI5tzwlngLvEpe-2" target="ii1_k4aI5tzwlngLvEpe-6">
          <mxGeometry relative="1" as="geometry" />
        </mxCell>
        <mxCell id="79FXgjblU2wBR-eepzPM-280" style="edgeStyle=orthogonalEdgeStyle;shape=connector;rounded=0;orthogonalLoop=1;jettySize=auto;html=1;exitX=0.5;exitY=1;exitDx=0;exitDy=0;entryX=0.5;entryY=0;entryDx=0;entryDy=0;labelBackgroundColor=default;strokeColor=default;fontFamily=Helvetica;fontSize=11;fontColor=default;endArrow=none;endFill=0;" edge="1" parent="1" source="ii1_k4aI5tzwlngLvEpe-2" target="ii1_k4aI5tzwlngLvEpe-5">
          <mxGeometry relative="1" as="geometry" />
        </mxCell>
        <mxCell id="ii1_k4aI5tzwlngLvEpe-2" value="HTML" style="rounded=0;whiteSpace=wrap;html=1;fontSize=16;" parent="1" vertex="1">
          <mxGeometry x="155" y="-1040" width="120" height="60" as="geometry" />
        </mxCell>
        <mxCell id="ii1_k4aI5tzwlngLvEpe-4" value="" style="endArrow=none;html=1;rounded=0;fontSize=12;startSize=8;endSize=8;curved=1;entryX=0.5;entryY=1;entryDx=0;entryDy=0;exitX=0.5;exitY=0;exitDx=0;exitDy=0;" parent="1" source="ii1_k4aI5tzwlngLvEpe-2" target="ii1_k4aI5tzwlngLvEpe-1" edge="1">
          <mxGeometry width="50" height="50" relative="1" as="geometry">
            <mxPoint x="231" y="-775" as="sourcePoint" />
            <mxPoint x="281" y="-825" as="targetPoint" />
          </mxGeometry>
        </mxCell>
        <mxCell id="ii1_k4aI5tzwlngLvEpe-76" style="edgeStyle=none;curved=1;rounded=0;orthogonalLoop=1;jettySize=auto;html=1;exitX=0.5;exitY=1;exitDx=0;exitDy=0;entryX=0.5;entryY=0;entryDx=0;entryDy=0;fontSize=12;startSize=8;endSize=8;endArrow=none;endFill=0;" parent="1" source="ii1_k4aI5tzwlngLvEpe-5" target="ii1_k4aI5tzwlngLvEpe-7" edge="1">
          <mxGeometry relative="1" as="geometry" />
        </mxCell>
        <mxCell id="ii1_k4aI5tzwlngLvEpe-77" style="edgeStyle=none;curved=1;rounded=0;orthogonalLoop=1;jettySize=auto;html=1;exitX=0.5;exitY=1;exitDx=0;exitDy=0;entryX=0.5;entryY=0;entryDx=0;entryDy=0;fontSize=12;startSize=8;endSize=8;endArrow=none;endFill=0;" parent="1" source="ii1_k4aI5tzwlngLvEpe-5" target="ii1_k4aI5tzwlngLvEpe-11" edge="1">
          <mxGeometry relative="1" as="geometry" />
        </mxCell>
        <mxCell id="ii1_k4aI5tzwlngLvEpe-78" style="edgeStyle=none;curved=1;rounded=0;orthogonalLoop=1;jettySize=auto;html=1;exitX=0.5;exitY=1;exitDx=0;exitDy=0;entryX=0.5;entryY=0;entryDx=0;entryDy=0;fontSize=12;startSize=8;endSize=8;endArrow=none;endFill=0;" parent="1" source="ii1_k4aI5tzwlngLvEpe-5" target="ii1_k4aI5tzwlngLvEpe-10" edge="1">
          <mxGeometry relative="1" as="geometry" />
        </mxCell>
        <mxCell id="ii1_k4aI5tzwlngLvEpe-79" style="edgeStyle=none;curved=1;rounded=0;orthogonalLoop=1;jettySize=auto;html=1;exitX=0.5;exitY=1;exitDx=0;exitDy=0;entryX=0.5;entryY=0;entryDx=0;entryDy=0;fontSize=12;startSize=8;endSize=8;endArrow=none;endFill=0;" parent="1" source="ii1_k4aI5tzwlngLvEpe-5" target="ii1_k4aI5tzwlngLvEpe-9" edge="1">
          <mxGeometry relative="1" as="geometry" />
        </mxCell>
        <mxCell id="ii1_k4aI5tzwlngLvEpe-5" value="Head" style="rounded=0;whiteSpace=wrap;html=1;fontSize=16;" parent="1" vertex="1">
          <mxGeometry x="-313" y="-940" width="120" height="60" as="geometry" />
        </mxCell>
        <mxCell id="ii1_k4aI5tzwlngLvEpe-112" style="edgeStyle=none;curved=1;rounded=0;orthogonalLoop=1;jettySize=auto;html=1;exitX=0.5;exitY=1;exitDx=0;exitDy=0;entryX=0.5;entryY=0;entryDx=0;entryDy=0;fontSize=12;startSize=8;endSize=8;endArrow=none;endFill=0;" parent="1" source="ii1_k4aI5tzwlngLvEpe-6" target="ii1_k4aI5tzwlngLvEpe-32" edge="1">
          <mxGeometry relative="1" as="geometry" />
        </mxCell>
        <mxCell id="79FXgjblU2wBR-eepzPM-268" style="edgeStyle=orthogonalEdgeStyle;shape=connector;rounded=0;orthogonalLoop=1;jettySize=auto;html=1;exitX=0.5;exitY=1;exitDx=0;exitDy=0;labelBackgroundColor=default;strokeColor=default;fontFamily=Helvetica;fontSize=11;fontColor=default;endArrow=none;endFill=0;" edge="1" parent="1" source="ii1_k4aI5tzwlngLvEpe-6" target="79FXgjblU2wBR-eepzPM-265">
          <mxGeometry relative="1" as="geometry" />
        </mxCell>
        <mxCell id="79FXgjblU2wBR-eepzPM-269" style="edgeStyle=orthogonalEdgeStyle;shape=connector;rounded=0;orthogonalLoop=1;jettySize=auto;html=1;exitX=0.5;exitY=1;exitDx=0;exitDy=0;labelBackgroundColor=default;strokeColor=default;fontFamily=Helvetica;fontSize=11;fontColor=default;endArrow=none;endFill=0;" edge="1" parent="1" source="ii1_k4aI5tzwlngLvEpe-6" target="79FXgjblU2wBR-eepzPM-266">
          <mxGeometry relative="1" as="geometry" />
        </mxCell>
        <mxCell id="79FXgjblU2wBR-eepzPM-270" style="edgeStyle=orthogonalEdgeStyle;shape=connector;rounded=0;orthogonalLoop=1;jettySize=auto;html=1;exitX=0.5;exitY=1;exitDx=0;exitDy=0;labelBackgroundColor=default;strokeColor=default;fontFamily=Helvetica;fontSize=11;fontColor=default;endArrow=none;endFill=0;" edge="1" parent="1" source="ii1_k4aI5tzwlngLvEpe-6" target="79FXgjblU2wBR-eepzPM-267">
          <mxGeometry relative="1" as="geometry" />
        </mxCell>
        <mxCell id="79FXgjblU2wBR-eepzPM-277" style="edgeStyle=orthogonalEdgeStyle;shape=connector;rounded=0;orthogonalLoop=1;jettySize=auto;html=1;exitX=0.5;exitY=1;exitDx=0;exitDy=0;entryX=0.5;entryY=0;entryDx=0;entryDy=0;labelBackgroundColor=default;strokeColor=default;fontFamily=Helvetica;fontSize=11;fontColor=default;endArrow=none;endFill=0;" edge="1" parent="1" source="ii1_k4aI5tzwlngLvEpe-6" target="ii1_k4aI5tzwlngLvEpe-281">
          <mxGeometry relative="1" as="geometry" />
        </mxCell>
        <mxCell id="79FXgjblU2wBR-eepzPM-278" style="edgeStyle=orthogonalEdgeStyle;shape=connector;rounded=0;orthogonalLoop=1;jettySize=auto;html=1;exitX=0.5;exitY=1;exitDx=0;exitDy=0;entryX=0.5;entryY=0;entryDx=0;entryDy=0;labelBackgroundColor=default;strokeColor=default;fontFamily=Helvetica;fontSize=11;fontColor=default;endArrow=none;endFill=0;" edge="1" parent="1" source="ii1_k4aI5tzwlngLvEpe-6" target="ii1_k4aI5tzwlngLvEpe-13">
          <mxGeometry relative="1" as="geometry" />
        </mxCell>
        <mxCell id="ii1_k4aI5tzwlngLvEpe-6" value="Body" style="rounded=0;whiteSpace=wrap;html=1;fontSize=16;" parent="1" vertex="1">
          <mxGeometry x="543" y="-940" width="120" height="60" as="geometry" />
        </mxCell>
        <mxCell id="ii1_k4aI5tzwlngLvEpe-80" style="edgeStyle=none;curved=1;rounded=0;orthogonalLoop=1;jettySize=auto;html=1;exitX=0.5;exitY=1;exitDx=0;exitDy=0;entryX=0.5;entryY=0;entryDx=0;entryDy=0;fontSize=12;startSize=8;endSize=8;endArrow=none;endFill=0;" parent="1" source="ii1_k4aI5tzwlngLvEpe-7" target="ii1_k4aI5tzwlngLvEpe-12" edge="1">
          <mxGeometry relative="1" as="geometry" />
        </mxCell>
        <mxCell id="ii1_k4aI5tzwlngLvEpe-7" value="Title" style="rounded=0;whiteSpace=wrap;html=1;fontSize=16;" parent="1" vertex="1">
          <mxGeometry x="-513" y="-850" width="120" height="60" as="geometry" />
        </mxCell>
        <mxCell id="ii1_k4aI5tzwlngLvEpe-9" value="Link" style="rounded=0;whiteSpace=wrap;html=1;fontSize=16;" parent="1" vertex="1">
          <mxGeometry x="-140" y="-850" width="120" height="60" as="geometry" />
        </mxCell>
        <mxCell id="ii1_k4aI5tzwlngLvEpe-10" value="Link" style="rounded=0;whiteSpace=wrap;html=1;fontSize=16;" parent="1" vertex="1">
          <mxGeometry x="-264" y="-850" width="120" height="60" as="geometry" />
        </mxCell>
        <mxCell id="ii1_k4aI5tzwlngLvEpe-11" value="Link" style="rounded=0;whiteSpace=wrap;html=1;fontSize=16;" parent="1" vertex="1">
          <mxGeometry x="-388" y="-850" width="120" height="60" as="geometry" />
        </mxCell>
        <mxCell id="ii1_k4aI5tzwlngLvEpe-12" value="&quot;About Me&quot;" style="rounded=1;whiteSpace=wrap;html=1;fontSize=16;" parent="1" vertex="1">
          <mxGeometry x="-513" y="-743" width="120" height="60" as="geometry" />
        </mxCell>
        <mxCell id="ii1_k4aI5tzwlngLvEpe-85" style="edgeStyle=none;curved=1;rounded=0;orthogonalLoop=1;jettySize=auto;html=1;exitX=0.5;exitY=1;exitDx=0;exitDy=0;entryX=0.5;entryY=0;entryDx=0;entryDy=0;fontSize=12;startSize=8;endSize=8;endArrow=none;endFill=0;" parent="1" source="ii1_k4aI5tzwlngLvEpe-13" target="ii1_k4aI5tzwlngLvEpe-14" edge="1">
          <mxGeometry relative="1" as="geometry" />
        </mxCell>
        <mxCell id="ii1_k4aI5tzwlngLvEpe-13" value="Header" style="rounded=0;whiteSpace=wrap;html=1;fontSize=16;" parent="1" vertex="1">
          <mxGeometry x="234" y="-749" width="120" height="60" as="geometry" />
        </mxCell>
        <mxCell id="ii1_k4aI5tzwlngLvEpe-87" style="edgeStyle=none;curved=1;rounded=0;orthogonalLoop=1;jettySize=auto;html=1;exitX=0.5;exitY=1;exitDx=0;exitDy=0;entryX=0.5;entryY=0;entryDx=0;entryDy=0;fontSize=12;startSize=8;endSize=8;endArrow=none;endFill=0;" parent="1" source="ii1_k4aI5tzwlngLvEpe-14" target="ii1_k4aI5tzwlngLvEpe-16" edge="1">
          <mxGeometry relative="1" as="geometry" />
        </mxCell>
        <mxCell id="ii1_k4aI5tzwlngLvEpe-14" value="Div" style="rounded=0;whiteSpace=wrap;html=1;fontSize=16;" parent="1" vertex="1">
          <mxGeometry x="140" y="-641" width="120" height="60" as="geometry" />
        </mxCell>
        <mxCell id="ii1_k4aI5tzwlngLvEpe-16" value="&quot;The Beginning&quot;" style="rounded=1;whiteSpace=wrap;html=1;fontSize=16;" parent="1" vertex="1">
          <mxGeometry x="140" y="-551" width="120" height="60" as="geometry" />
        </mxCell>
        <mxCell id="79FXgjblU2wBR-eepzPM-271" style="edgeStyle=orthogonalEdgeStyle;shape=connector;rounded=0;orthogonalLoop=1;jettySize=auto;html=1;exitX=0.5;exitY=1;exitDx=0;exitDy=0;labelBackgroundColor=default;strokeColor=default;fontFamily=Helvetica;fontSize=11;fontColor=default;endArrow=none;endFill=0;" edge="1" parent="1" source="ii1_k4aI5tzwlngLvEpe-32" target="79FXgjblU2wBR-eepzPM-13">
          <mxGeometry relative="1" as="geometry">
            <Array as="points">
              <mxPoint x="603" y="-396" />
              <mxPoint x="-727" y="-396" />
            </Array>
          </mxGeometry>
        </mxCell>
        <mxCell id="79FXgjblU2wBR-eepzPM-272" style="edgeStyle=orthogonalEdgeStyle;shape=connector;rounded=0;orthogonalLoop=1;jettySize=auto;html=1;exitX=0.5;exitY=1;exitDx=0;exitDy=0;labelBackgroundColor=default;strokeColor=default;fontFamily=Helvetica;fontSize=11;fontColor=default;endArrow=none;endFill=0;" edge="1" parent="1" source="ii1_k4aI5tzwlngLvEpe-32" target="79FXgjblU2wBR-eepzPM-38">
          <mxGeometry relative="1" as="geometry">
            <Array as="points">
              <mxPoint x="603" y="-399" />
              <mxPoint x="-124" y="-399" />
            </Array>
          </mxGeometry>
        </mxCell>
        <mxCell id="79FXgjblU2wBR-eepzPM-273" style="edgeStyle=orthogonalEdgeStyle;shape=connector;rounded=0;orthogonalLoop=1;jettySize=auto;html=1;exitX=0.5;exitY=1;exitDx=0;exitDy=0;entryX=0.5;entryY=0;entryDx=0;entryDy=0;labelBackgroundColor=default;strokeColor=default;fontFamily=Helvetica;fontSize=11;fontColor=default;endArrow=none;endFill=0;" edge="1" parent="1" source="ii1_k4aI5tzwlngLvEpe-32" target="79FXgjblU2wBR-eepzPM-80">
          <mxGeometry relative="1" as="geometry">
            <Array as="points">
              <mxPoint x="603" y="-399" />
              <mxPoint x="658" y="-399" />
            </Array>
          </mxGeometry>
        </mxCell>
        <mxCell id="79FXgjblU2wBR-eepzPM-274" style="edgeStyle=orthogonalEdgeStyle;shape=connector;rounded=0;orthogonalLoop=1;jettySize=auto;html=1;exitX=0.5;exitY=1;exitDx=0;exitDy=0;entryX=0.5;entryY=0;entryDx=0;entryDy=0;labelBackgroundColor=default;strokeColor=default;fontFamily=Helvetica;fontSize=11;fontColor=default;endArrow=none;endFill=0;" edge="1" parent="1" source="ii1_k4aI5tzwlngLvEpe-32" target="79FXgjblU2wBR-eepzPM-132">
          <mxGeometry relative="1" as="geometry">
            <Array as="points">
              <mxPoint x="603" y="-396" />
              <mxPoint x="1355" y="-396" />
            </Array>
          </mxGeometry>
        </mxCell>
        <mxCell id="79FXgjblU2wBR-eepzPM-275" style="edgeStyle=orthogonalEdgeStyle;shape=connector;rounded=0;orthogonalLoop=1;jettySize=auto;html=1;exitX=0.5;exitY=1;exitDx=0;exitDy=0;labelBackgroundColor=default;strokeColor=default;fontFamily=Helvetica;fontSize=11;fontColor=default;endArrow=none;endFill=0;entryX=0.5;entryY=0;entryDx=0;entryDy=0;" edge="1" parent="1" source="ii1_k4aI5tzwlngLvEpe-32" target="79FXgjblU2wBR-eepzPM-153">
          <mxGeometry relative="1" as="geometry">
            <mxPoint x="1740.39990234375" y="-200.7999267578125" as="targetPoint" />
            <Array as="points">
              <mxPoint x="603" y="-394" />
              <mxPoint x="2072" y="-394" />
            </Array>
          </mxGeometry>
        </mxCell>
        <mxCell id="79FXgjblU2wBR-eepzPM-276" style="edgeStyle=orthogonalEdgeStyle;shape=connector;rounded=0;orthogonalLoop=1;jettySize=auto;html=1;exitX=0.5;exitY=1;exitDx=0;exitDy=0;labelBackgroundColor=default;strokeColor=default;fontFamily=Helvetica;fontSize=11;fontColor=default;endArrow=none;endFill=0;entryX=0.5;entryY=0;entryDx=0;entryDy=0;" edge="1" parent="1" source="ii1_k4aI5tzwlngLvEpe-32" target="79FXgjblU2wBR-eepzPM-251">
          <mxGeometry relative="1" as="geometry">
            <mxPoint x="1889.199951171875" y="-299.99981689453125" as="targetPoint" />
            <Array as="points">
              <mxPoint x="603" y="-393" />
              <mxPoint x="2498" y="-393" />
            </Array>
          </mxGeometry>
        </mxCell>
        <mxCell id="ii1_k4aI5tzwlngLvEpe-32" value="Main" style="rounded=0;whiteSpace=wrap;html=1;fontSize=16;" parent="1" vertex="1">
          <mxGeometry x="543" y="-749" width="120" height="60" as="geometry" />
        </mxCell>
        <mxCell id="79FXgjblU2wBR-eepzPM-264" style="edgeStyle=orthogonalEdgeStyle;shape=connector;rounded=0;orthogonalLoop=1;jettySize=auto;html=1;exitX=0.5;exitY=1;exitDx=0;exitDy=0;labelBackgroundColor=default;strokeColor=default;fontFamily=Helvetica;fontSize=11;fontColor=default;endArrow=none;endFill=0;" edge="1" parent="1" source="ii1_k4aI5tzwlngLvEpe-281" target="79FXgjblU2wBR-eepzPM-4">
          <mxGeometry relative="1" as="geometry" />
        </mxCell>
        <mxCell id="ii1_k4aI5tzwlngLvEpe-281" value="Footer" style="rounded=0;whiteSpace=wrap;html=1;fontSize=16;" parent="1" vertex="1">
          <mxGeometry x="836" y="-749" width="120" height="60" as="geometry" />
        </mxCell>
        <mxCell id="79FXgjblU2wBR-eepzPM-1" value="Image" style="rounded=0;whiteSpace=wrap;html=1;" vertex="1" parent="1">
          <mxGeometry x="-642" y="-850" width="120" height="60" as="geometry" />
        </mxCell>
        <mxCell id="79FXgjblU2wBR-eepzPM-3" value="" style="endArrow=none;html=1;rounded=0;entryX=0.5;entryY=1;entryDx=0;entryDy=0;exitX=0.5;exitY=0;exitDx=0;exitDy=0;" edge="1" parent="1" source="79FXgjblU2wBR-eepzPM-1" target="ii1_k4aI5tzwlngLvEpe-5">
          <mxGeometry width="50" height="50" relative="1" as="geometry">
            <mxPoint x="-295" y="-809" as="sourcePoint" />
            <mxPoint x="-245" y="-859" as="targetPoint" />
          </mxGeometry>
        </mxCell>
        <mxCell id="79FXgjblU2wBR-eepzPM-4" value="Div" style="rounded=0;whiteSpace=wrap;html=1;fontSize=16;" vertex="1" parent="1">
          <mxGeometry x="836" y="-663" width="120" height="60" as="geometry" />
        </mxCell>
        <mxCell id="79FXgjblU2wBR-eepzPM-5" value="BR" style="rounded=0;whiteSpace=wrap;html=1;fontSize=16;" vertex="1" parent="1">
          <mxGeometry x="836" y="-551" width="120" height="60" as="geometry" />
        </mxCell>
        <mxCell id="79FXgjblU2wBR-eepzPM-6" value="dhardy2@my.athens.edu" style="rounded=0;whiteSpace=wrap;html=1;fontSize=16;" vertex="1" parent="1">
          <mxGeometry x="974" y="-551" width="201" height="60" as="geometry" />
        </mxCell>
        <mxCell id="79FXgjblU2wBR-eepzPM-7" value="&quot;Devin Lynn Hardy&quot;" style="rounded=0;whiteSpace=wrap;html=1;fontSize=16;" vertex="1" parent="1">
          <mxGeometry x="697" y="-551" width="120" height="60" as="geometry" />
        </mxCell>
        <mxCell id="79FXgjblU2wBR-eepzPM-8" value="" style="endArrow=none;html=1;rounded=0;entryX=0.5;entryY=1;entryDx=0;entryDy=0;exitX=0.5;exitY=0;exitDx=0;exitDy=0;" edge="1" parent="1" source="79FXgjblU2wBR-eepzPM-6" target="79FXgjblU2wBR-eepzPM-4">
          <mxGeometry width="50" height="50" relative="1" as="geometry">
            <mxPoint x="867" y="-352" as="sourcePoint" />
            <mxPoint x="917" y="-402" as="targetPoint" />
          </mxGeometry>
        </mxCell>
        <mxCell id="79FXgjblU2wBR-eepzPM-10" value="" style="endArrow=none;html=1;rounded=0;entryX=0.5;entryY=1;entryDx=0;entryDy=0;exitX=0.5;exitY=0;exitDx=0;exitDy=0;" edge="1" parent="1" source="79FXgjblU2wBR-eepzPM-5" target="79FXgjblU2wBR-eepzPM-4">
          <mxGeometry width="50" height="50" relative="1" as="geometry">
            <mxPoint x="867" y="-352" as="sourcePoint" />
            <mxPoint x="917" y="-402" as="targetPoint" />
          </mxGeometry>
        </mxCell>
        <mxCell id="79FXgjblU2wBR-eepzPM-11" value="" style="endArrow=none;html=1;rounded=0;entryX=0.5;entryY=1;entryDx=0;entryDy=0;exitX=0.5;exitY=0;exitDx=0;exitDy=0;" edge="1" parent="1" source="79FXgjblU2wBR-eepzPM-7" target="79FXgjblU2wBR-eepzPM-4">
          <mxGeometry width="50" height="50" relative="1" as="geometry">
            <mxPoint x="867" y="-352" as="sourcePoint" />
            <mxPoint x="917" y="-402" as="targetPoint" />
          </mxGeometry>
        </mxCell>
        <mxCell id="79FXgjblU2wBR-eepzPM-24" style="edgeStyle=orthogonalEdgeStyle;rounded=0;orthogonalLoop=1;jettySize=auto;html=1;exitX=0.5;exitY=1;exitDx=0;exitDy=0;entryX=0.5;entryY=0;entryDx=0;entryDy=0;endArrow=none;endFill=0;" edge="1" parent="1" source="79FXgjblU2wBR-eepzPM-13" target="79FXgjblU2wBR-eepzPM-18">
          <mxGeometry relative="1" as="geometry" />
        </mxCell>
        <mxCell id="79FXgjblU2wBR-eepzPM-25" style="edgeStyle=orthogonalEdgeStyle;rounded=0;orthogonalLoop=1;jettySize=auto;html=1;exitX=0.5;exitY=1;exitDx=0;exitDy=0;entryX=0.5;entryY=0;entryDx=0;entryDy=0;endArrow=none;endFill=0;" edge="1" parent="1" source="79FXgjblU2wBR-eepzPM-13" target="79FXgjblU2wBR-eepzPM-14">
          <mxGeometry relative="1" as="geometry" />
        </mxCell>
        <mxCell id="79FXgjblU2wBR-eepzPM-27" style="edgeStyle=orthogonalEdgeStyle;shape=connector;rounded=0;orthogonalLoop=1;jettySize=auto;html=1;exitX=0.5;exitY=1;exitDx=0;exitDy=0;entryX=0.5;entryY=0;entryDx=0;entryDy=0;labelBackgroundColor=default;strokeColor=default;fontFamily=Helvetica;fontSize=11;fontColor=default;endArrow=none;endFill=0;" edge="1" parent="1" source="79FXgjblU2wBR-eepzPM-13" target="79FXgjblU2wBR-eepzPM-21">
          <mxGeometry relative="1" as="geometry" />
        </mxCell>
        <mxCell id="79FXgjblU2wBR-eepzPM-13" value="Div" style="rounded=0;whiteSpace=wrap;html=1;" vertex="1" parent="1">
          <mxGeometry x="-787" y="-322" width="120" height="60" as="geometry" />
        </mxCell>
        <mxCell id="79FXgjblU2wBR-eepzPM-171" style="edgeStyle=orthogonalEdgeStyle;shape=connector;rounded=0;orthogonalLoop=1;jettySize=auto;html=1;exitX=0.5;exitY=1;exitDx=0;exitDy=0;entryX=0.5;entryY=0;entryDx=0;entryDy=0;labelBackgroundColor=default;strokeColor=default;fontFamily=Helvetica;fontSize=11;fontColor=default;endArrow=none;endFill=0;" edge="1" parent="1" source="79FXgjblU2wBR-eepzPM-14" target="79FXgjblU2wBR-eepzPM-170">
          <mxGeometry relative="1" as="geometry" />
        </mxCell>
        <mxCell id="79FXgjblU2wBR-eepzPM-173" style="edgeStyle=orthogonalEdgeStyle;shape=connector;rounded=0;orthogonalLoop=1;jettySize=auto;html=1;exitX=0.5;exitY=1;exitDx=0;exitDy=0;entryX=0.5;entryY=0;entryDx=0;entryDy=0;labelBackgroundColor=default;strokeColor=default;fontFamily=Helvetica;fontSize=11;fontColor=default;endArrow=none;endFill=0;" edge="1" parent="1" source="79FXgjblU2wBR-eepzPM-14" target="79FXgjblU2wBR-eepzPM-17">
          <mxGeometry relative="1" as="geometry" />
        </mxCell>
        <mxCell id="79FXgjblU2wBR-eepzPM-14" value="Div" style="whiteSpace=wrap;html=1;" vertex="1" parent="1">
          <mxGeometry x="-787" y="-205" width="120" height="60" as="geometry" />
        </mxCell>
        <mxCell id="79FXgjblU2wBR-eepzPM-33" style="edgeStyle=orthogonalEdgeStyle;shape=connector;rounded=0;orthogonalLoop=1;jettySize=auto;html=1;exitX=0.5;exitY=1;exitDx=0;exitDy=0;entryX=0.5;entryY=0;entryDx=0;entryDy=0;labelBackgroundColor=default;strokeColor=default;fontFamily=Helvetica;fontSize=11;fontColor=default;endArrow=none;endFill=0;" edge="1" parent="1" source="79FXgjblU2wBR-eepzPM-15" target="79FXgjblU2wBR-eepzPM-16">
          <mxGeometry relative="1" as="geometry" />
        </mxCell>
        <mxCell id="79FXgjblU2wBR-eepzPM-15" value="P" style="whiteSpace=wrap;html=1;" vertex="1" parent="1">
          <mxGeometry x="-862" y="-9" width="120" height="60" as="geometry" />
        </mxCell>
        <mxCell id="79FXgjblU2wBR-eepzPM-16" value="Lots of Text" style="rounded=0;whiteSpace=wrap;html=1;" vertex="1" parent="1">
          <mxGeometry x="-862" y="81" width="120" height="60" as="geometry" />
        </mxCell>
        <mxCell id="79FXgjblU2wBR-eepzPM-30" style="edgeStyle=orthogonalEdgeStyle;shape=connector;rounded=0;orthogonalLoop=1;jettySize=auto;html=1;exitX=0.5;exitY=1;exitDx=0;exitDy=0;entryX=0.5;entryY=0;entryDx=0;entryDy=0;labelBackgroundColor=default;strokeColor=default;fontFamily=Helvetica;fontSize=11;fontColor=default;endArrow=none;endFill=0;" edge="1" parent="1" source="79FXgjblU2wBR-eepzPM-17" target="79FXgjblU2wBR-eepzPM-20">
          <mxGeometry relative="1" as="geometry" />
        </mxCell>
        <mxCell id="79FXgjblU2wBR-eepzPM-17" value="Div" style="rounded=0;whiteSpace=wrap;html=1;" vertex="1" parent="1">
          <mxGeometry x="-711" y="-99" width="120" height="60" as="geometry" />
        </mxCell>
        <mxCell id="79FXgjblU2wBR-eepzPM-31" style="edgeStyle=orthogonalEdgeStyle;shape=connector;rounded=0;orthogonalLoop=1;jettySize=auto;html=1;exitX=0.5;exitY=1;exitDx=0;exitDy=0;entryX=0.5;entryY=0;entryDx=0;entryDy=0;labelBackgroundColor=default;strokeColor=default;fontFamily=Helvetica;fontSize=11;fontColor=default;endArrow=none;endFill=0;" edge="1" parent="1" source="79FXgjblU2wBR-eepzPM-18" target="79FXgjblU2wBR-eepzPM-19">
          <mxGeometry relative="1" as="geometry" />
        </mxCell>
        <mxCell id="79FXgjblU2wBR-eepzPM-18" value="H3" style="rounded=0;whiteSpace=wrap;html=1;" vertex="1" parent="1">
          <mxGeometry x="-1013" y="-203" width="120" height="60" as="geometry" />
        </mxCell>
        <mxCell id="79FXgjblU2wBR-eepzPM-19" value="&quot;The Beginning&quot;" style="rounded=0;whiteSpace=wrap;html=1;" vertex="1" parent="1">
          <mxGeometry x="-1013" y="-99" width="120" height="60" as="geometry" />
        </mxCell>
        <mxCell id="79FXgjblU2wBR-eepzPM-20" value="Img" style="rounded=0;whiteSpace=wrap;html=1;" vertex="1" parent="1">
          <mxGeometry x="-711" y="-9" width="120" height="60" as="geometry" />
        </mxCell>
        <mxCell id="79FXgjblU2wBR-eepzPM-28" style="edgeStyle=orthogonalEdgeStyle;shape=connector;rounded=0;orthogonalLoop=1;jettySize=auto;html=1;exitX=0.5;exitY=1;exitDx=0;exitDy=0;entryX=0.5;entryY=0;entryDx=0;entryDy=0;labelBackgroundColor=default;strokeColor=default;fontFamily=Helvetica;fontSize=11;fontColor=default;endArrow=none;endFill=0;" edge="1" parent="1" source="79FXgjblU2wBR-eepzPM-21" target="79FXgjblU2wBR-eepzPM-22">
          <mxGeometry relative="1" as="geometry" />
        </mxCell>
        <mxCell id="79FXgjblU2wBR-eepzPM-21" value="Form" style="rounded=0;whiteSpace=wrap;html=1;" vertex="1" parent="1">
          <mxGeometry x="-561" y="-203" width="120" height="60" as="geometry" />
        </mxCell>
        <mxCell id="79FXgjblU2wBR-eepzPM-29" style="edgeStyle=orthogonalEdgeStyle;shape=connector;rounded=0;orthogonalLoop=1;jettySize=auto;html=1;exitX=0.5;exitY=1;exitDx=0;exitDy=0;entryX=0.5;entryY=0;entryDx=0;entryDy=0;labelBackgroundColor=default;strokeColor=default;fontFamily=Helvetica;fontSize=11;fontColor=default;endArrow=none;endFill=0;" edge="1" parent="1" source="79FXgjblU2wBR-eepzPM-22" target="79FXgjblU2wBR-eepzPM-23">
          <mxGeometry relative="1" as="geometry" />
        </mxCell>
        <mxCell id="79FXgjblU2wBR-eepzPM-22" value="Button" style="rounded=0;whiteSpace=wrap;html=1;" vertex="1" parent="1">
          <mxGeometry x="-561" y="-99" width="120" height="60" as="geometry" />
        </mxCell>
        <mxCell id="79FXgjblU2wBR-eepzPM-23" value="&quot;The Start&quot;" style="rounded=0;whiteSpace=wrap;html=1;" vertex="1" parent="1">
          <mxGeometry x="-561" y="-9" width="120" height="60" as="geometry" />
        </mxCell>
        <mxCell id="79FXgjblU2wBR-eepzPM-34" style="edgeStyle=orthogonalEdgeStyle;rounded=0;orthogonalLoop=1;jettySize=auto;html=1;exitX=0.5;exitY=1;exitDx=0;exitDy=0;entryX=0.5;entryY=0;entryDx=0;entryDy=0;endArrow=none;endFill=0;" edge="1" parent="1" source="79FXgjblU2wBR-eepzPM-38" target="79FXgjblU2wBR-eepzPM-47">
          <mxGeometry relative="1" as="geometry" />
        </mxCell>
        <mxCell id="79FXgjblU2wBR-eepzPM-37" style="edgeStyle=orthogonalEdgeStyle;shape=connector;rounded=0;orthogonalLoop=1;jettySize=auto;html=1;exitX=0.5;exitY=1;exitDx=0;exitDy=0;entryX=0.5;entryY=0;entryDx=0;entryDy=0;labelBackgroundColor=default;strokeColor=default;fontFamily=Helvetica;fontSize=11;fontColor=default;endArrow=none;endFill=0;" edge="1" parent="1" source="79FXgjblU2wBR-eepzPM-38" target="79FXgjblU2wBR-eepzPM-51">
          <mxGeometry relative="1" as="geometry" />
        </mxCell>
        <mxCell id="79FXgjblU2wBR-eepzPM-185" style="edgeStyle=orthogonalEdgeStyle;shape=connector;rounded=0;orthogonalLoop=1;jettySize=auto;html=1;exitX=0.5;exitY=1;exitDx=0;exitDy=0;entryX=0.5;entryY=0;entryDx=0;entryDy=0;labelBackgroundColor=default;strokeColor=default;fontFamily=Helvetica;fontSize=11;fontColor=default;endArrow=none;endFill=0;" edge="1" parent="1" source="79FXgjblU2wBR-eepzPM-38" target="79FXgjblU2wBR-eepzPM-176">
          <mxGeometry relative="1" as="geometry" />
        </mxCell>
        <mxCell id="79FXgjblU2wBR-eepzPM-38" value="Div" style="rounded=0;whiteSpace=wrap;html=1;" vertex="1" parent="1">
          <mxGeometry x="-184" y="-322" width="120" height="60" as="geometry" />
        </mxCell>
        <mxCell id="79FXgjblU2wBR-eepzPM-46" style="edgeStyle=orthogonalEdgeStyle;shape=connector;rounded=0;orthogonalLoop=1;jettySize=auto;html=1;exitX=0.5;exitY=1;exitDx=0;exitDy=0;entryX=0.5;entryY=0;entryDx=0;entryDy=0;labelBackgroundColor=default;strokeColor=default;fontFamily=Helvetica;fontSize=11;fontColor=default;endArrow=none;endFill=0;" edge="1" parent="1" source="79FXgjblU2wBR-eepzPM-47" target="79FXgjblU2wBR-eepzPM-48">
          <mxGeometry relative="1" as="geometry" />
        </mxCell>
        <mxCell id="79FXgjblU2wBR-eepzPM-47" value="H3" style="rounded=0;whiteSpace=wrap;html=1;" vertex="1" parent="1">
          <mxGeometry x="-410" y="-203" width="120" height="60" as="geometry" />
        </mxCell>
        <mxCell id="79FXgjblU2wBR-eepzPM-48" value="&quot;Adding Images" style="rounded=0;whiteSpace=wrap;html=1;" vertex="1" parent="1">
          <mxGeometry x="-410" y="-99" width="120" height="60" as="geometry" />
        </mxCell>
        <mxCell id="79FXgjblU2wBR-eepzPM-50" style="edgeStyle=orthogonalEdgeStyle;shape=connector;rounded=0;orthogonalLoop=1;jettySize=auto;html=1;exitX=0.5;exitY=1;exitDx=0;exitDy=0;entryX=0.5;entryY=0;entryDx=0;entryDy=0;labelBackgroundColor=default;strokeColor=default;fontFamily=Helvetica;fontSize=11;fontColor=default;endArrow=none;endFill=0;" edge="1" parent="1" source="79FXgjblU2wBR-eepzPM-51" target="79FXgjblU2wBR-eepzPM-53">
          <mxGeometry relative="1" as="geometry" />
        </mxCell>
        <mxCell id="79FXgjblU2wBR-eepzPM-51" value="Form" style="rounded=0;whiteSpace=wrap;html=1;" vertex="1" parent="1">
          <mxGeometry x="42" y="-203" width="120" height="60" as="geometry" />
        </mxCell>
        <mxCell id="79FXgjblU2wBR-eepzPM-52" style="edgeStyle=orthogonalEdgeStyle;shape=connector;rounded=0;orthogonalLoop=1;jettySize=auto;html=1;exitX=0.5;exitY=1;exitDx=0;exitDy=0;entryX=0.5;entryY=0;entryDx=0;entryDy=0;labelBackgroundColor=default;strokeColor=default;fontFamily=Helvetica;fontSize=11;fontColor=default;endArrow=none;endFill=0;" edge="1" parent="1" source="79FXgjblU2wBR-eepzPM-53" target="79FXgjblU2wBR-eepzPM-54">
          <mxGeometry relative="1" as="geometry" />
        </mxCell>
        <mxCell id="79FXgjblU2wBR-eepzPM-53" value="Button" style="rounded=0;whiteSpace=wrap;html=1;" vertex="1" parent="1">
          <mxGeometry x="42" y="-99" width="120" height="60" as="geometry" />
        </mxCell>
        <mxCell id="79FXgjblU2wBR-eepzPM-54" value="&quot;Restaurant&quot;" style="rounded=0;whiteSpace=wrap;html=1;" vertex="1" parent="1">
          <mxGeometry x="42" y="-9" width="120" height="60" as="geometry" />
        </mxCell>
        <mxCell id="79FXgjblU2wBR-eepzPM-76" style="edgeStyle=orthogonalEdgeStyle;rounded=0;orthogonalLoop=1;jettySize=auto;html=1;exitX=0.5;exitY=1;exitDx=0;exitDy=0;entryX=0.5;entryY=0;entryDx=0;entryDy=0;endArrow=none;endFill=0;" edge="1" parent="1" source="79FXgjblU2wBR-eepzPM-80" target="79FXgjblU2wBR-eepzPM-89">
          <mxGeometry relative="1" as="geometry" />
        </mxCell>
        <mxCell id="79FXgjblU2wBR-eepzPM-79" style="edgeStyle=orthogonalEdgeStyle;shape=connector;rounded=0;orthogonalLoop=1;jettySize=auto;html=1;exitX=0.5;exitY=1;exitDx=0;exitDy=0;entryX=0.5;entryY=0;entryDx=0;entryDy=0;labelBackgroundColor=default;strokeColor=default;fontFamily=Helvetica;fontSize=11;fontColor=default;endArrow=none;endFill=0;" edge="1" parent="1" source="79FXgjblU2wBR-eepzPM-80" target="79FXgjblU2wBR-eepzPM-93">
          <mxGeometry relative="1" as="geometry" />
        </mxCell>
        <mxCell id="79FXgjblU2wBR-eepzPM-197" style="edgeStyle=orthogonalEdgeStyle;shape=connector;rounded=0;orthogonalLoop=1;jettySize=auto;html=1;exitX=0.5;exitY=1;exitDx=0;exitDy=0;entryX=0.5;entryY=0;entryDx=0;entryDy=0;labelBackgroundColor=default;strokeColor=default;fontFamily=Helvetica;fontSize=11;fontColor=default;endArrow=none;endFill=0;" edge="1" parent="1" source="79FXgjblU2wBR-eepzPM-80" target="79FXgjblU2wBR-eepzPM-188">
          <mxGeometry relative="1" as="geometry" />
        </mxCell>
        <mxCell id="79FXgjblU2wBR-eepzPM-80" value="Div" style="rounded=0;whiteSpace=wrap;html=1;" vertex="1" parent="1">
          <mxGeometry x="598" y="-322" width="120" height="60" as="geometry" />
        </mxCell>
        <mxCell id="79FXgjblU2wBR-eepzPM-198" style="edgeStyle=orthogonalEdgeStyle;shape=connector;rounded=0;orthogonalLoop=1;jettySize=auto;html=1;exitX=0.5;exitY=1;exitDx=0;exitDy=0;entryX=0.5;entryY=0;entryDx=0;entryDy=0;labelBackgroundColor=default;strokeColor=default;fontFamily=Helvetica;fontSize=11;fontColor=default;endArrow=none;endFill=0;" edge="1" parent="1" source="79FXgjblU2wBR-eepzPM-87" target="79FXgjblU2wBR-eepzPM-91">
          <mxGeometry relative="1" as="geometry">
            <Array as="points">
              <mxPoint x="728" y="-26" />
              <mxPoint x="707" y="-26" />
            </Array>
          </mxGeometry>
        </mxCell>
        <mxCell id="79FXgjblU2wBR-eepzPM-199" style="edgeStyle=orthogonalEdgeStyle;shape=connector;rounded=0;orthogonalLoop=1;jettySize=auto;html=1;exitX=0.5;exitY=1;exitDx=0;exitDy=0;entryX=0.5;entryY=0;entryDx=0;entryDy=0;labelBackgroundColor=default;strokeColor=default;fontFamily=Helvetica;fontSize=11;fontColor=default;endArrow=none;endFill=0;" edge="1" parent="1" source="79FXgjblU2wBR-eepzPM-87" target="79FXgjblU2wBR-eepzPM-101">
          <mxGeometry relative="1" as="geometry">
            <Array as="points">
              <mxPoint x="728" y="-19" />
              <mxPoint x="854" y="-19" />
            </Array>
          </mxGeometry>
        </mxCell>
        <mxCell id="79FXgjblU2wBR-eepzPM-87" value="Div" style="rounded=0;whiteSpace=wrap;html=1;" vertex="1" parent="1">
          <mxGeometry x="668" y="-99" width="120" height="60" as="geometry" />
        </mxCell>
        <mxCell id="79FXgjblU2wBR-eepzPM-88" style="edgeStyle=orthogonalEdgeStyle;shape=connector;rounded=0;orthogonalLoop=1;jettySize=auto;html=1;exitX=0.5;exitY=1;exitDx=0;exitDy=0;entryX=0.5;entryY=0;entryDx=0;entryDy=0;labelBackgroundColor=default;strokeColor=default;fontFamily=Helvetica;fontSize=11;fontColor=default;endArrow=none;endFill=0;" edge="1" parent="1" source="79FXgjblU2wBR-eepzPM-89" target="79FXgjblU2wBR-eepzPM-90">
          <mxGeometry relative="1" as="geometry" />
        </mxCell>
        <mxCell id="79FXgjblU2wBR-eepzPM-98" style="edgeStyle=orthogonalEdgeStyle;shape=connector;rounded=0;orthogonalLoop=1;jettySize=auto;html=1;exitX=0.5;exitY=1;exitDx=0;exitDy=0;entryX=0.5;entryY=0;entryDx=0;entryDy=0;labelBackgroundColor=default;strokeColor=default;fontFamily=Helvetica;fontSize=11;fontColor=default;endArrow=none;endFill=0;" edge="1" parent="1" source="79FXgjblU2wBR-eepzPM-89" target="79FXgjblU2wBR-eepzPM-97">
          <mxGeometry relative="1" as="geometry" />
        </mxCell>
        <mxCell id="79FXgjblU2wBR-eepzPM-89" value="H3" style="rounded=0;whiteSpace=wrap;html=1;" vertex="1" parent="1">
          <mxGeometry x="372" y="-203" width="120" height="60" as="geometry" />
        </mxCell>
        <mxCell id="79FXgjblU2wBR-eepzPM-90" value="&quot;The Midterm&quot;" style="rounded=0;whiteSpace=wrap;html=1;" vertex="1" parent="1">
          <mxGeometry x="372" y="-99" width="120" height="60" as="geometry" />
        </mxCell>
        <mxCell id="79FXgjblU2wBR-eepzPM-104" style="edgeStyle=orthogonalEdgeStyle;shape=connector;rounded=0;orthogonalLoop=1;jettySize=auto;html=1;exitX=0.5;exitY=1;exitDx=0;exitDy=0;entryX=0.5;entryY=0;entryDx=0;entryDy=0;labelBackgroundColor=default;strokeColor=default;fontFamily=Helvetica;fontSize=11;fontColor=default;endArrow=none;endFill=0;" edge="1" parent="1" source="79FXgjblU2wBR-eepzPM-91" target="79FXgjblU2wBR-eepzPM-103">
          <mxGeometry relative="1" as="geometry" />
        </mxCell>
        <mxCell id="79FXgjblU2wBR-eepzPM-91" value="Div" style="rounded=0;whiteSpace=wrap;html=1;" vertex="1" parent="1">
          <mxGeometry x="647" y="-7" width="120" height="60" as="geometry" />
        </mxCell>
        <mxCell id="79FXgjblU2wBR-eepzPM-92" style="edgeStyle=orthogonalEdgeStyle;shape=connector;rounded=0;orthogonalLoop=1;jettySize=auto;html=1;exitX=0.5;exitY=1;exitDx=0;exitDy=0;entryX=0.5;entryY=0;entryDx=0;entryDy=0;labelBackgroundColor=default;strokeColor=default;fontFamily=Helvetica;fontSize=11;fontColor=default;endArrow=none;endFill=0;" edge="1" parent="1" source="79FXgjblU2wBR-eepzPM-93" target="79FXgjblU2wBR-eepzPM-95">
          <mxGeometry relative="1" as="geometry" />
        </mxCell>
        <mxCell id="79FXgjblU2wBR-eepzPM-93" value="Form" style="rounded=0;whiteSpace=wrap;html=1;" vertex="1" parent="1">
          <mxGeometry x="940" y="-203" width="120" height="60" as="geometry" />
        </mxCell>
        <mxCell id="79FXgjblU2wBR-eepzPM-94" style="edgeStyle=orthogonalEdgeStyle;shape=connector;rounded=0;orthogonalLoop=1;jettySize=auto;html=1;exitX=0.5;exitY=1;exitDx=0;exitDy=0;entryX=0.5;entryY=0;entryDx=0;entryDy=0;labelBackgroundColor=default;strokeColor=default;fontFamily=Helvetica;fontSize=11;fontColor=default;endArrow=none;endFill=0;" edge="1" parent="1" source="79FXgjblU2wBR-eepzPM-95" target="79FXgjblU2wBR-eepzPM-96">
          <mxGeometry relative="1" as="geometry" />
        </mxCell>
        <mxCell id="79FXgjblU2wBR-eepzPM-95" value="Button" style="rounded=0;whiteSpace=wrap;html=1;" vertex="1" parent="1">
          <mxGeometry x="940" y="-99" width="120" height="60" as="geometry" />
        </mxCell>
        <mxCell id="79FXgjblU2wBR-eepzPM-96" value="&quot;Midterm&quot;" style="rounded=0;whiteSpace=wrap;html=1;" vertex="1" parent="1">
          <mxGeometry x="940" y="-9" width="120" height="60" as="geometry" />
        </mxCell>
        <mxCell id="79FXgjblU2wBR-eepzPM-100" style="edgeStyle=orthogonalEdgeStyle;shape=connector;rounded=0;orthogonalLoop=1;jettySize=auto;html=1;exitX=0.5;exitY=1;exitDx=0;exitDy=0;entryX=0.5;entryY=0;entryDx=0;entryDy=0;labelBackgroundColor=default;strokeColor=default;fontFamily=Helvetica;fontSize=11;fontColor=default;endArrow=none;endFill=0;" edge="1" parent="1" source="79FXgjblU2wBR-eepzPM-97" target="79FXgjblU2wBR-eepzPM-99">
          <mxGeometry relative="1" as="geometry" />
        </mxCell>
        <mxCell id="79FXgjblU2wBR-eepzPM-97" value="Small" style="rounded=0;whiteSpace=wrap;html=1;fontFamily=Helvetica;fontSize=11;fontColor=default;" vertex="1" parent="1">
          <mxGeometry x="223" y="-99" width="120" height="60" as="geometry" />
        </mxCell>
        <mxCell id="79FXgjblU2wBR-eepzPM-99" value="&quot;Still working with HTML&quot;" style="rounded=0;whiteSpace=wrap;html=1;fontFamily=Helvetica;fontSize=11;fontColor=default;" vertex="1" parent="1">
          <mxGeometry x="223" y="-9" width="120" height="60" as="geometry" />
        </mxCell>
        <mxCell id="79FXgjblU2wBR-eepzPM-106" style="edgeStyle=orthogonalEdgeStyle;shape=connector;rounded=0;orthogonalLoop=1;jettySize=auto;html=1;exitX=0.5;exitY=1;exitDx=0;exitDy=0;entryX=0.5;entryY=0;entryDx=0;entryDy=0;labelBackgroundColor=default;strokeColor=default;fontFamily=Helvetica;fontSize=11;fontColor=default;endArrow=none;endFill=0;" edge="1" parent="1" source="79FXgjblU2wBR-eepzPM-101" target="79FXgjblU2wBR-eepzPM-102">
          <mxGeometry relative="1" as="geometry" />
        </mxCell>
        <mxCell id="79FXgjblU2wBR-eepzPM-101" value="Small" style="rounded=0;whiteSpace=wrap;html=1;fontFamily=Helvetica;fontSize=11;fontColor=default;" vertex="1" parent="1">
          <mxGeometry x="794" y="-5" width="120" height="60" as="geometry" />
        </mxCell>
        <mxCell id="79FXgjblU2wBR-eepzPM-102" value="&quot;Image is clickable" style="rounded=0;whiteSpace=wrap;html=1;fontFamily=Helvetica;fontSize=11;fontColor=default;" vertex="1" parent="1">
          <mxGeometry x="794" y="95" width="120" height="60" as="geometry" />
        </mxCell>
        <mxCell id="79FXgjblU2wBR-eepzPM-103" value="Img" style="rounded=0;whiteSpace=wrap;html=1;fontFamily=Helvetica;fontSize=11;fontColor=default;" vertex="1" parent="1">
          <mxGeometry x="647" y="95" width="120" height="60" as="geometry" />
        </mxCell>
        <mxCell id="79FXgjblU2wBR-eepzPM-128" style="edgeStyle=orthogonalEdgeStyle;rounded=0;orthogonalLoop=1;jettySize=auto;html=1;exitX=0.5;exitY=1;exitDx=0;exitDy=0;entryX=0.5;entryY=0;entryDx=0;entryDy=0;endArrow=none;endFill=0;" edge="1" parent="1" source="79FXgjblU2wBR-eepzPM-132" target="79FXgjblU2wBR-eepzPM-141">
          <mxGeometry relative="1" as="geometry" />
        </mxCell>
        <mxCell id="79FXgjblU2wBR-eepzPM-131" style="edgeStyle=orthogonalEdgeStyle;shape=connector;rounded=0;orthogonalLoop=1;jettySize=auto;html=1;exitX=0.5;exitY=1;exitDx=0;exitDy=0;entryX=0.5;entryY=0;entryDx=0;entryDy=0;labelBackgroundColor=default;strokeColor=default;fontFamily=Helvetica;fontSize=11;fontColor=default;endArrow=none;endFill=0;" edge="1" parent="1" source="79FXgjblU2wBR-eepzPM-132" target="79FXgjblU2wBR-eepzPM-145">
          <mxGeometry relative="1" as="geometry" />
        </mxCell>
        <mxCell id="79FXgjblU2wBR-eepzPM-216" style="edgeStyle=orthogonalEdgeStyle;shape=connector;rounded=0;orthogonalLoop=1;jettySize=auto;html=1;exitX=0.5;exitY=1;exitDx=0;exitDy=0;entryX=0.5;entryY=0;entryDx=0;entryDy=0;labelBackgroundColor=default;strokeColor=default;fontFamily=Helvetica;fontSize=11;fontColor=default;endArrow=none;endFill=0;" edge="1" parent="1" source="79FXgjblU2wBR-eepzPM-132" target="79FXgjblU2wBR-eepzPM-203">
          <mxGeometry relative="1" as="geometry" />
        </mxCell>
        <mxCell id="79FXgjblU2wBR-eepzPM-132" value="Div" style="rounded=0;whiteSpace=wrap;html=1;" vertex="1" parent="1">
          <mxGeometry x="1295" y="-322" width="120" height="60" as="geometry" />
        </mxCell>
        <mxCell id="79FXgjblU2wBR-eepzPM-140" style="edgeStyle=orthogonalEdgeStyle;shape=connector;rounded=0;orthogonalLoop=1;jettySize=auto;html=1;exitX=0.5;exitY=1;exitDx=0;exitDy=0;entryX=0.5;entryY=0;entryDx=0;entryDy=0;labelBackgroundColor=default;strokeColor=default;fontFamily=Helvetica;fontSize=11;fontColor=default;endArrow=none;endFill=0;" edge="1" parent="1" source="79FXgjblU2wBR-eepzPM-141" target="79FXgjblU2wBR-eepzPM-142">
          <mxGeometry relative="1" as="geometry" />
        </mxCell>
        <mxCell id="79FXgjblU2wBR-eepzPM-141" value="H3" style="rounded=0;whiteSpace=wrap;html=1;" vertex="1" parent="1">
          <mxGeometry x="1069" y="-203" width="120" height="60" as="geometry" />
        </mxCell>
        <mxCell id="79FXgjblU2wBR-eepzPM-142" value="&quot;Adding to HTML&quot;" style="rounded=0;whiteSpace=wrap;html=1;" vertex="1" parent="1">
          <mxGeometry x="1069" y="-99" width="120" height="60" as="geometry" />
        </mxCell>
        <mxCell id="79FXgjblU2wBR-eepzPM-144" style="edgeStyle=orthogonalEdgeStyle;shape=connector;rounded=0;orthogonalLoop=1;jettySize=auto;html=1;exitX=0.5;exitY=1;exitDx=0;exitDy=0;entryX=0.5;entryY=0;entryDx=0;entryDy=0;labelBackgroundColor=default;strokeColor=default;fontFamily=Helvetica;fontSize=11;fontColor=default;endArrow=none;endFill=0;" edge="1" parent="1" source="79FXgjblU2wBR-eepzPM-145" target="79FXgjblU2wBR-eepzPM-147">
          <mxGeometry relative="1" as="geometry" />
        </mxCell>
        <mxCell id="79FXgjblU2wBR-eepzPM-215" style="edgeStyle=orthogonalEdgeStyle;shape=connector;rounded=0;orthogonalLoop=1;jettySize=auto;html=1;exitX=0.5;exitY=1;exitDx=0;exitDy=0;entryX=0.5;entryY=0;entryDx=0;entryDy=0;labelBackgroundColor=default;strokeColor=default;fontFamily=Helvetica;fontSize=11;fontColor=default;endArrow=none;endFill=0;" edge="1" parent="1" source="79FXgjblU2wBR-eepzPM-145" target="79FXgjblU2wBR-eepzPM-213">
          <mxGeometry relative="1" as="geometry" />
        </mxCell>
        <mxCell id="79FXgjblU2wBR-eepzPM-145" value="Form" style="rounded=0;whiteSpace=wrap;html=1;" vertex="1" parent="1">
          <mxGeometry x="1521" y="-203" width="120" height="60" as="geometry" />
        </mxCell>
        <mxCell id="79FXgjblU2wBR-eepzPM-146" style="edgeStyle=orthogonalEdgeStyle;shape=connector;rounded=0;orthogonalLoop=1;jettySize=auto;html=1;exitX=0.5;exitY=1;exitDx=0;exitDy=0;entryX=0.5;entryY=0;entryDx=0;entryDy=0;labelBackgroundColor=default;strokeColor=default;fontFamily=Helvetica;fontSize=11;fontColor=default;endArrow=none;endFill=0;" edge="1" parent="1" source="79FXgjblU2wBR-eepzPM-147" target="79FXgjblU2wBR-eepzPM-148">
          <mxGeometry relative="1" as="geometry" />
        </mxCell>
        <mxCell id="79FXgjblU2wBR-eepzPM-147" value="Button" style="rounded=0;whiteSpace=wrap;html=1;" vertex="1" parent="1">
          <mxGeometry x="1521" y="-99" width="120" height="60" as="geometry" />
        </mxCell>
        <mxCell id="79FXgjblU2wBR-eepzPM-148" value="&quot;Restaurant&quot;" style="rounded=0;whiteSpace=wrap;html=1;" vertex="1" parent="1">
          <mxGeometry x="1521" y="-9" width="120" height="60" as="geometry" />
        </mxCell>
        <mxCell id="79FXgjblU2wBR-eepzPM-149" style="edgeStyle=orthogonalEdgeStyle;rounded=0;orthogonalLoop=1;jettySize=auto;html=1;exitX=0.5;exitY=1;exitDx=0;exitDy=0;entryX=0.5;entryY=0;entryDx=0;entryDy=0;endArrow=none;endFill=0;" edge="1" parent="1" source="79FXgjblU2wBR-eepzPM-153" target="79FXgjblU2wBR-eepzPM-162">
          <mxGeometry relative="1" as="geometry" />
        </mxCell>
        <mxCell id="79FXgjblU2wBR-eepzPM-152" style="edgeStyle=orthogonalEdgeStyle;shape=connector;rounded=0;orthogonalLoop=1;jettySize=auto;html=1;exitX=0.5;exitY=1;exitDx=0;exitDy=0;entryX=0.5;entryY=0;entryDx=0;entryDy=0;labelBackgroundColor=default;strokeColor=default;fontFamily=Helvetica;fontSize=11;fontColor=default;endArrow=none;endFill=0;" edge="1" parent="1" source="79FXgjblU2wBR-eepzPM-153" target="79FXgjblU2wBR-eepzPM-166">
          <mxGeometry relative="1" as="geometry" />
        </mxCell>
        <mxCell id="79FXgjblU2wBR-eepzPM-218" style="edgeStyle=orthogonalEdgeStyle;shape=connector;rounded=0;orthogonalLoop=1;jettySize=auto;html=1;exitX=0.5;exitY=1;exitDx=0;exitDy=0;entryX=0.5;entryY=0;entryDx=0;entryDy=0;labelBackgroundColor=default;strokeColor=default;fontFamily=Helvetica;fontSize=11;fontColor=default;endArrow=none;endFill=0;" edge="1" parent="1" source="79FXgjblU2wBR-eepzPM-153" target="79FXgjblU2wBR-eepzPM-217">
          <mxGeometry relative="1" as="geometry" />
        </mxCell>
        <mxCell id="79FXgjblU2wBR-eepzPM-153" value="Div" style="rounded=0;whiteSpace=wrap;html=1;" vertex="1" parent="1">
          <mxGeometry x="2012" y="-320" width="120" height="60" as="geometry" />
        </mxCell>
        <mxCell id="79FXgjblU2wBR-eepzPM-154" style="edgeStyle=orthogonalEdgeStyle;shape=connector;rounded=0;orthogonalLoop=1;jettySize=auto;html=1;exitX=0.5;exitY=1;exitDx=0;exitDy=0;entryX=0.5;entryY=0;entryDx=0;entryDy=0;labelBackgroundColor=default;strokeColor=default;fontFamily=Helvetica;fontSize=11;fontColor=default;endArrow=none;endFill=0;" edge="1" parent="1" source="79FXgjblU2wBR-eepzPM-155" target="79FXgjblU2wBR-eepzPM-157">
          <mxGeometry relative="1" as="geometry" />
        </mxCell>
        <mxCell id="79FXgjblU2wBR-eepzPM-155" value="Div" style="whiteSpace=wrap;html=1;" vertex="1" parent="1">
          <mxGeometry x="1917" y="-97" width="120" height="60" as="geometry" />
        </mxCell>
        <mxCell id="79FXgjblU2wBR-eepzPM-156" style="edgeStyle=orthogonalEdgeStyle;shape=connector;rounded=0;orthogonalLoop=1;jettySize=auto;html=1;exitX=0.5;exitY=1;exitDx=0;exitDy=0;entryX=0.5;entryY=0;entryDx=0;entryDy=0;labelBackgroundColor=default;strokeColor=default;fontFamily=Helvetica;fontSize=11;fontColor=default;endArrow=none;endFill=0;" edge="1" parent="1" source="79FXgjblU2wBR-eepzPM-157" target="79FXgjblU2wBR-eepzPM-158">
          <mxGeometry relative="1" as="geometry" />
        </mxCell>
        <mxCell id="79FXgjblU2wBR-eepzPM-157" value="P" style="whiteSpace=wrap;html=1;" vertex="1" parent="1">
          <mxGeometry x="1917" y="7" width="120" height="60" as="geometry" />
        </mxCell>
        <mxCell id="79FXgjblU2wBR-eepzPM-158" value="Lots of Text" style="rounded=0;whiteSpace=wrap;html=1;" vertex="1" parent="1">
          <mxGeometry x="1917" y="97" width="120" height="60" as="geometry" />
        </mxCell>
        <mxCell id="79FXgjblU2wBR-eepzPM-159" style="edgeStyle=orthogonalEdgeStyle;shape=connector;rounded=0;orthogonalLoop=1;jettySize=auto;html=1;exitX=0.5;exitY=1;exitDx=0;exitDy=0;entryX=0.5;entryY=0;entryDx=0;entryDy=0;labelBackgroundColor=default;strokeColor=default;fontFamily=Helvetica;fontSize=11;fontColor=default;endArrow=none;endFill=0;" edge="1" parent="1" source="79FXgjblU2wBR-eepzPM-160" target="79FXgjblU2wBR-eepzPM-164">
          <mxGeometry relative="1" as="geometry" />
        </mxCell>
        <mxCell id="79FXgjblU2wBR-eepzPM-160" value="Div" style="rounded=0;whiteSpace=wrap;html=1;" vertex="1" parent="1">
          <mxGeometry x="1926" y="188" width="120" height="60" as="geometry" />
        </mxCell>
        <mxCell id="79FXgjblU2wBR-eepzPM-161" style="edgeStyle=orthogonalEdgeStyle;shape=connector;rounded=0;orthogonalLoop=1;jettySize=auto;html=1;exitX=0.5;exitY=1;exitDx=0;exitDy=0;entryX=0.5;entryY=0;entryDx=0;entryDy=0;labelBackgroundColor=default;strokeColor=default;fontFamily=Helvetica;fontSize=11;fontColor=default;endArrow=none;endFill=0;" edge="1" parent="1" source="79FXgjblU2wBR-eepzPM-162" target="79FXgjblU2wBR-eepzPM-163">
          <mxGeometry relative="1" as="geometry" />
        </mxCell>
        <mxCell id="79FXgjblU2wBR-eepzPM-162" value="H3" style="rounded=0;whiteSpace=wrap;html=1;" vertex="1" parent="1">
          <mxGeometry x="1786" y="-201" width="120" height="60" as="geometry" />
        </mxCell>
        <mxCell id="79FXgjblU2wBR-eepzPM-163" value="&quot;Adding Even MORE&quot;" style="rounded=0;whiteSpace=wrap;html=1;" vertex="1" parent="1">
          <mxGeometry x="1786" y="-97" width="120" height="60" as="geometry" />
        </mxCell>
        <mxCell id="79FXgjblU2wBR-eepzPM-164" value="Img" style="rounded=0;whiteSpace=wrap;html=1;" vertex="1" parent="1">
          <mxGeometry x="1926" y="292" width="120" height="60" as="geometry" />
        </mxCell>
        <mxCell id="79FXgjblU2wBR-eepzPM-165" style="edgeStyle=orthogonalEdgeStyle;shape=connector;rounded=0;orthogonalLoop=1;jettySize=auto;html=1;exitX=0.5;exitY=1;exitDx=0;exitDy=0;entryX=0.5;entryY=0;entryDx=0;entryDy=0;labelBackgroundColor=default;strokeColor=default;fontFamily=Helvetica;fontSize=11;fontColor=default;endArrow=none;endFill=0;" edge="1" parent="1" source="79FXgjblU2wBR-eepzPM-166" target="79FXgjblU2wBR-eepzPM-168">
          <mxGeometry relative="1" as="geometry" />
        </mxCell>
        <mxCell id="79FXgjblU2wBR-eepzPM-166" value="Form" style="rounded=0;whiteSpace=wrap;html=1;" vertex="1" parent="1">
          <mxGeometry x="2209" y="-201" width="120" height="60" as="geometry" />
        </mxCell>
        <mxCell id="79FXgjblU2wBR-eepzPM-167" style="edgeStyle=orthogonalEdgeStyle;shape=connector;rounded=0;orthogonalLoop=1;jettySize=auto;html=1;exitX=0.5;exitY=1;exitDx=0;exitDy=0;entryX=0.5;entryY=0;entryDx=0;entryDy=0;labelBackgroundColor=default;strokeColor=default;fontFamily=Helvetica;fontSize=11;fontColor=default;endArrow=none;endFill=0;" edge="1" parent="1" source="79FXgjblU2wBR-eepzPM-168" target="79FXgjblU2wBR-eepzPM-169">
          <mxGeometry relative="1" as="geometry" />
        </mxCell>
        <mxCell id="79FXgjblU2wBR-eepzPM-168" value="Button" style="rounded=0;whiteSpace=wrap;html=1;" vertex="1" parent="1">
          <mxGeometry x="2209" y="-97" width="120" height="60" as="geometry" />
        </mxCell>
        <mxCell id="79FXgjblU2wBR-eepzPM-169" value="&quot;Restaurant&quot;" style="rounded=0;whiteSpace=wrap;html=1;" vertex="1" parent="1">
          <mxGeometry x="2209" y="-7" width="120" height="60" as="geometry" />
        </mxCell>
        <mxCell id="79FXgjblU2wBR-eepzPM-172" style="edgeStyle=orthogonalEdgeStyle;shape=connector;rounded=0;orthogonalLoop=1;jettySize=auto;html=1;exitX=0.5;exitY=1;exitDx=0;exitDy=0;entryX=0.5;entryY=0;entryDx=0;entryDy=0;labelBackgroundColor=default;strokeColor=default;fontFamily=Helvetica;fontSize=11;fontColor=default;endArrow=none;endFill=0;" edge="1" parent="1" source="79FXgjblU2wBR-eepzPM-170" target="79FXgjblU2wBR-eepzPM-15">
          <mxGeometry relative="1" as="geometry" />
        </mxCell>
        <mxCell id="79FXgjblU2wBR-eepzPM-170" value="Div" style="whiteSpace=wrap;html=1;" vertex="1" parent="1">
          <mxGeometry x="-862" y="-99" width="120" height="60" as="geometry" />
        </mxCell>
        <mxCell id="79FXgjblU2wBR-eepzPM-174" style="edgeStyle=orthogonalEdgeStyle;shape=connector;rounded=0;orthogonalLoop=1;jettySize=auto;html=1;exitX=0.5;exitY=1;exitDx=0;exitDy=0;entryX=0.5;entryY=0;entryDx=0;entryDy=0;labelBackgroundColor=default;strokeColor=default;fontFamily=Helvetica;fontSize=11;fontColor=default;endArrow=none;endFill=0;" edge="1" parent="1" source="79FXgjblU2wBR-eepzPM-176" target="79FXgjblU2wBR-eepzPM-184">
          <mxGeometry relative="1" as="geometry" />
        </mxCell>
        <mxCell id="79FXgjblU2wBR-eepzPM-175" style="edgeStyle=orthogonalEdgeStyle;shape=connector;rounded=0;orthogonalLoop=1;jettySize=auto;html=1;exitX=0.5;exitY=1;exitDx=0;exitDy=0;entryX=0.5;entryY=0;entryDx=0;entryDy=0;labelBackgroundColor=default;strokeColor=default;fontFamily=Helvetica;fontSize=11;fontColor=default;endArrow=none;endFill=0;" edge="1" parent="1" source="79FXgjblU2wBR-eepzPM-176" target="79FXgjblU2wBR-eepzPM-181">
          <mxGeometry relative="1" as="geometry" />
        </mxCell>
        <mxCell id="79FXgjblU2wBR-eepzPM-176" value="Div" style="whiteSpace=wrap;html=1;" vertex="1" parent="1">
          <mxGeometry x="-184.5" y="-203" width="120" height="60" as="geometry" />
        </mxCell>
        <mxCell id="79FXgjblU2wBR-eepzPM-177" style="edgeStyle=orthogonalEdgeStyle;shape=connector;rounded=0;orthogonalLoop=1;jettySize=auto;html=1;exitX=0.5;exitY=1;exitDx=0;exitDy=0;entryX=0.5;entryY=0;entryDx=0;entryDy=0;labelBackgroundColor=default;strokeColor=default;fontFamily=Helvetica;fontSize=11;fontColor=default;endArrow=none;endFill=0;" edge="1" parent="1" source="79FXgjblU2wBR-eepzPM-178" target="79FXgjblU2wBR-eepzPM-179">
          <mxGeometry relative="1" as="geometry" />
        </mxCell>
        <mxCell id="79FXgjblU2wBR-eepzPM-178" value="P" style="whiteSpace=wrap;html=1;" vertex="1" parent="1">
          <mxGeometry x="-259.5" y="-7" width="120" height="60" as="geometry" />
        </mxCell>
        <mxCell id="79FXgjblU2wBR-eepzPM-179" value="Lots of Text" style="rounded=0;whiteSpace=wrap;html=1;" vertex="1" parent="1">
          <mxGeometry x="-259.5" y="83" width="120" height="60" as="geometry" />
        </mxCell>
        <mxCell id="79FXgjblU2wBR-eepzPM-180" style="edgeStyle=orthogonalEdgeStyle;shape=connector;rounded=0;orthogonalLoop=1;jettySize=auto;html=1;exitX=0.5;exitY=1;exitDx=0;exitDy=0;entryX=0.5;entryY=0;entryDx=0;entryDy=0;labelBackgroundColor=default;strokeColor=default;fontFamily=Helvetica;fontSize=11;fontColor=default;endArrow=none;endFill=0;" edge="1" parent="1" source="79FXgjblU2wBR-eepzPM-181" target="79FXgjblU2wBR-eepzPM-182">
          <mxGeometry relative="1" as="geometry" />
        </mxCell>
        <mxCell id="79FXgjblU2wBR-eepzPM-181" value="Div" style="rounded=0;whiteSpace=wrap;html=1;" vertex="1" parent="1">
          <mxGeometry x="-108.5" y="-97" width="120" height="60" as="geometry" />
        </mxCell>
        <mxCell id="79FXgjblU2wBR-eepzPM-182" value="Img" style="rounded=0;whiteSpace=wrap;html=1;" vertex="1" parent="1">
          <mxGeometry x="-108.5" y="-7" width="120" height="60" as="geometry" />
        </mxCell>
        <mxCell id="79FXgjblU2wBR-eepzPM-183" style="edgeStyle=orthogonalEdgeStyle;shape=connector;rounded=0;orthogonalLoop=1;jettySize=auto;html=1;exitX=0.5;exitY=1;exitDx=0;exitDy=0;entryX=0.5;entryY=0;entryDx=0;entryDy=0;labelBackgroundColor=default;strokeColor=default;fontFamily=Helvetica;fontSize=11;fontColor=default;endArrow=none;endFill=0;" edge="1" parent="1" source="79FXgjblU2wBR-eepzPM-184" target="79FXgjblU2wBR-eepzPM-178">
          <mxGeometry relative="1" as="geometry" />
        </mxCell>
        <mxCell id="79FXgjblU2wBR-eepzPM-184" value="Div" style="whiteSpace=wrap;html=1;" vertex="1" parent="1">
          <mxGeometry x="-259.5" y="-97" width="120" height="60" as="geometry" />
        </mxCell>
        <mxCell id="79FXgjblU2wBR-eepzPM-186" style="edgeStyle=orthogonalEdgeStyle;shape=connector;rounded=0;orthogonalLoop=1;jettySize=auto;html=1;exitX=0.5;exitY=1;exitDx=0;exitDy=0;entryX=0.5;entryY=0;entryDx=0;entryDy=0;labelBackgroundColor=default;strokeColor=default;fontFamily=Helvetica;fontSize=11;fontColor=default;endArrow=none;endFill=0;" edge="1" parent="1" source="79FXgjblU2wBR-eepzPM-188" target="79FXgjblU2wBR-eepzPM-196">
          <mxGeometry relative="1" as="geometry" />
        </mxCell>
        <mxCell id="79FXgjblU2wBR-eepzPM-200" style="edgeStyle=orthogonalEdgeStyle;shape=connector;rounded=0;orthogonalLoop=1;jettySize=auto;html=1;exitX=0.5;exitY=1;exitDx=0;exitDy=0;entryX=0.5;entryY=0;entryDx=0;entryDy=0;labelBackgroundColor=default;strokeColor=default;fontFamily=Helvetica;fontSize=11;fontColor=default;endArrow=none;endFill=0;" edge="1" parent="1" source="79FXgjblU2wBR-eepzPM-188" target="79FXgjblU2wBR-eepzPM-87">
          <mxGeometry relative="1" as="geometry" />
        </mxCell>
        <mxCell id="79FXgjblU2wBR-eepzPM-188" value="Div" style="whiteSpace=wrap;html=1;" vertex="1" parent="1">
          <mxGeometry x="583" y="-201" width="120" height="60" as="geometry" />
        </mxCell>
        <mxCell id="79FXgjblU2wBR-eepzPM-189" style="edgeStyle=orthogonalEdgeStyle;shape=connector;rounded=0;orthogonalLoop=1;jettySize=auto;html=1;exitX=0.5;exitY=1;exitDx=0;exitDy=0;entryX=0.5;entryY=0;entryDx=0;entryDy=0;labelBackgroundColor=default;strokeColor=default;fontFamily=Helvetica;fontSize=11;fontColor=default;endArrow=none;endFill=0;" edge="1" parent="1" source="79FXgjblU2wBR-eepzPM-190" target="79FXgjblU2wBR-eepzPM-191">
          <mxGeometry relative="1" as="geometry" />
        </mxCell>
        <mxCell id="79FXgjblU2wBR-eepzPM-190" value="P" style="whiteSpace=wrap;html=1;" vertex="1" parent="1">
          <mxGeometry x="508" y="-5" width="120" height="60" as="geometry" />
        </mxCell>
        <mxCell id="79FXgjblU2wBR-eepzPM-191" value="Lots of Text" style="rounded=0;whiteSpace=wrap;html=1;" vertex="1" parent="1">
          <mxGeometry x="508" y="85" width="120" height="60" as="geometry" />
        </mxCell>
        <mxCell id="79FXgjblU2wBR-eepzPM-195" style="edgeStyle=orthogonalEdgeStyle;shape=connector;rounded=0;orthogonalLoop=1;jettySize=auto;html=1;exitX=0.5;exitY=1;exitDx=0;exitDy=0;entryX=0.5;entryY=0;entryDx=0;entryDy=0;labelBackgroundColor=default;strokeColor=default;fontFamily=Helvetica;fontSize=11;fontColor=default;endArrow=none;endFill=0;" edge="1" parent="1" source="79FXgjblU2wBR-eepzPM-196" target="79FXgjblU2wBR-eepzPM-190">
          <mxGeometry relative="1" as="geometry" />
        </mxCell>
        <mxCell id="79FXgjblU2wBR-eepzPM-196" value="Div" style="whiteSpace=wrap;html=1;" vertex="1" parent="1">
          <mxGeometry x="510" y="-99" width="120" height="60" as="geometry" />
        </mxCell>
        <mxCell id="79FXgjblU2wBR-eepzPM-201" style="edgeStyle=orthogonalEdgeStyle;shape=connector;rounded=0;orthogonalLoop=1;jettySize=auto;html=1;exitX=0.5;exitY=1;exitDx=0;exitDy=0;entryX=0.5;entryY=0;entryDx=0;entryDy=0;labelBackgroundColor=default;strokeColor=default;fontFamily=Helvetica;fontSize=11;fontColor=default;endArrow=none;endFill=0;" edge="1" parent="1" source="79FXgjblU2wBR-eepzPM-203" target="79FXgjblU2wBR-eepzPM-211">
          <mxGeometry relative="1" as="geometry" />
        </mxCell>
        <mxCell id="79FXgjblU2wBR-eepzPM-202" style="edgeStyle=orthogonalEdgeStyle;shape=connector;rounded=0;orthogonalLoop=1;jettySize=auto;html=1;exitX=0.5;exitY=1;exitDx=0;exitDy=0;entryX=0.5;entryY=0;entryDx=0;entryDy=0;labelBackgroundColor=default;strokeColor=default;fontFamily=Helvetica;fontSize=11;fontColor=default;endArrow=none;endFill=0;" edge="1" parent="1" source="79FXgjblU2wBR-eepzPM-203" target="79FXgjblU2wBR-eepzPM-208">
          <mxGeometry relative="1" as="geometry" />
        </mxCell>
        <mxCell id="79FXgjblU2wBR-eepzPM-203" value="Div" style="whiteSpace=wrap;html=1;" vertex="1" parent="1">
          <mxGeometry x="1294.5" y="-203" width="120" height="60" as="geometry" />
        </mxCell>
        <mxCell id="79FXgjblU2wBR-eepzPM-204" style="edgeStyle=orthogonalEdgeStyle;shape=connector;rounded=0;orthogonalLoop=1;jettySize=auto;html=1;exitX=0.5;exitY=1;exitDx=0;exitDy=0;entryX=0.5;entryY=0;entryDx=0;entryDy=0;labelBackgroundColor=default;strokeColor=default;fontFamily=Helvetica;fontSize=11;fontColor=default;endArrow=none;endFill=0;" edge="1" parent="1" source="79FXgjblU2wBR-eepzPM-205" target="79FXgjblU2wBR-eepzPM-206">
          <mxGeometry relative="1" as="geometry" />
        </mxCell>
        <mxCell id="79FXgjblU2wBR-eepzPM-205" value="P" style="whiteSpace=wrap;html=1;" vertex="1" parent="1">
          <mxGeometry x="1219.5" y="-7" width="120" height="60" as="geometry" />
        </mxCell>
        <mxCell id="79FXgjblU2wBR-eepzPM-206" value="Lots of Text" style="rounded=0;whiteSpace=wrap;html=1;" vertex="1" parent="1">
          <mxGeometry x="1219.5" y="83" width="120" height="60" as="geometry" />
        </mxCell>
        <mxCell id="79FXgjblU2wBR-eepzPM-207" style="edgeStyle=orthogonalEdgeStyle;shape=connector;rounded=0;orthogonalLoop=1;jettySize=auto;html=1;exitX=0.5;exitY=1;exitDx=0;exitDy=0;entryX=0.5;entryY=0;entryDx=0;entryDy=0;labelBackgroundColor=default;strokeColor=default;fontFamily=Helvetica;fontSize=11;fontColor=default;endArrow=none;endFill=0;" edge="1" parent="1" source="79FXgjblU2wBR-eepzPM-208" target="79FXgjblU2wBR-eepzPM-209">
          <mxGeometry relative="1" as="geometry" />
        </mxCell>
        <mxCell id="79FXgjblU2wBR-eepzPM-208" value="Div" style="rounded=0;whiteSpace=wrap;html=1;" vertex="1" parent="1">
          <mxGeometry x="1370.5" y="-97" width="120" height="60" as="geometry" />
        </mxCell>
        <mxCell id="79FXgjblU2wBR-eepzPM-209" value="Img" style="rounded=0;whiteSpace=wrap;html=1;" vertex="1" parent="1">
          <mxGeometry x="1370.5" y="-7" width="120" height="60" as="geometry" />
        </mxCell>
        <mxCell id="79FXgjblU2wBR-eepzPM-210" style="edgeStyle=orthogonalEdgeStyle;shape=connector;rounded=0;orthogonalLoop=1;jettySize=auto;html=1;exitX=0.5;exitY=1;exitDx=0;exitDy=0;entryX=0.5;entryY=0;entryDx=0;entryDy=0;labelBackgroundColor=default;strokeColor=default;fontFamily=Helvetica;fontSize=11;fontColor=default;endArrow=none;endFill=0;" edge="1" parent="1" source="79FXgjblU2wBR-eepzPM-211" target="79FXgjblU2wBR-eepzPM-205">
          <mxGeometry relative="1" as="geometry" />
        </mxCell>
        <mxCell id="79FXgjblU2wBR-eepzPM-211" value="Div" style="whiteSpace=wrap;html=1;" vertex="1" parent="1">
          <mxGeometry x="1219.5" y="-97" width="120" height="60" as="geometry" />
        </mxCell>
        <mxCell id="79FXgjblU2wBR-eepzPM-212" style="edgeStyle=orthogonalEdgeStyle;shape=connector;rounded=0;orthogonalLoop=1;jettySize=auto;html=1;exitX=0.5;exitY=1;exitDx=0;exitDy=0;entryX=0.5;entryY=0;entryDx=0;entryDy=0;labelBackgroundColor=default;strokeColor=default;fontFamily=Helvetica;fontSize=11;fontColor=default;endArrow=none;endFill=0;" edge="1" parent="1" source="79FXgjblU2wBR-eepzPM-213" target="79FXgjblU2wBR-eepzPM-214">
          <mxGeometry relative="1" as="geometry" />
        </mxCell>
        <mxCell id="79FXgjblU2wBR-eepzPM-213" value="Button" style="rounded=0;whiteSpace=wrap;html=1;" vertex="1" parent="1">
          <mxGeometry x="1656" y="-99" width="120" height="60" as="geometry" />
        </mxCell>
        <mxCell id="79FXgjblU2wBR-eepzPM-214" value="&quot;Toggle Image&quot;" style="rounded=0;whiteSpace=wrap;html=1;" vertex="1" parent="1">
          <mxGeometry x="1656" y="-9" width="120" height="60" as="geometry" />
        </mxCell>
        <mxCell id="79FXgjblU2wBR-eepzPM-229" style="edgeStyle=orthogonalEdgeStyle;shape=connector;rounded=0;orthogonalLoop=1;jettySize=auto;html=1;exitX=0.5;exitY=1;exitDx=0;exitDy=0;entryX=0.5;entryY=0;entryDx=0;entryDy=0;labelBackgroundColor=default;strokeColor=default;fontFamily=Helvetica;fontSize=11;fontColor=default;endArrow=none;endFill=0;" edge="1" parent="1" source="79FXgjblU2wBR-eepzPM-217" target="79FXgjblU2wBR-eepzPM-155">
          <mxGeometry relative="1" as="geometry" />
        </mxCell>
        <mxCell id="79FXgjblU2wBR-eepzPM-231" style="edgeStyle=orthogonalEdgeStyle;shape=connector;rounded=0;orthogonalLoop=1;jettySize=auto;html=1;exitX=0.5;exitY=1;exitDx=0;exitDy=0;entryX=0.5;entryY=0;entryDx=0;entryDy=0;labelBackgroundColor=default;strokeColor=default;fontFamily=Helvetica;fontSize=11;fontColor=default;endArrow=none;endFill=0;" edge="1" parent="1" source="79FXgjblU2wBR-eepzPM-217" target="79FXgjblU2wBR-eepzPM-219">
          <mxGeometry relative="1" as="geometry" />
        </mxCell>
        <mxCell id="79FXgjblU2wBR-eepzPM-217" value="Div" style="rounded=0;whiteSpace=wrap;html=1;" vertex="1" parent="1">
          <mxGeometry x="2012" y="-203" width="120" height="60" as="geometry" />
        </mxCell>
        <mxCell id="79FXgjblU2wBR-eepzPM-230" style="edgeStyle=orthogonalEdgeStyle;shape=connector;rounded=0;orthogonalLoop=1;jettySize=auto;html=1;exitX=0.5;exitY=1;exitDx=0;exitDy=0;entryX=0.5;entryY=0;entryDx=0;entryDy=0;labelBackgroundColor=default;strokeColor=default;fontFamily=Helvetica;fontSize=11;fontColor=default;endArrow=none;endFill=0;" edge="1" parent="1" source="79FXgjblU2wBR-eepzPM-219" target="79FXgjblU2wBR-eepzPM-227">
          <mxGeometry relative="1" as="geometry" />
        </mxCell>
        <mxCell id="79FXgjblU2wBR-eepzPM-219" value="Div" style="rounded=0;whiteSpace=wrap;html=1;" vertex="1" parent="1">
          <mxGeometry x="2060" y="-99" width="120" height="60" as="geometry" />
        </mxCell>
        <mxCell id="79FXgjblU2wBR-eepzPM-221" style="edgeStyle=orthogonalEdgeStyle;shape=connector;rounded=0;orthogonalLoop=1;jettySize=auto;html=1;exitX=0.5;exitY=1;exitDx=0;exitDy=0;entryX=0.5;entryY=0;entryDx=0;entryDy=0;labelBackgroundColor=default;strokeColor=default;fontFamily=Helvetica;fontSize=11;fontColor=default;endArrow=none;endFill=0;" edge="1" parent="1" source="79FXgjblU2wBR-eepzPM-222" target="79FXgjblU2wBR-eepzPM-223">
          <mxGeometry relative="1" as="geometry" />
        </mxCell>
        <mxCell id="79FXgjblU2wBR-eepzPM-222" value="Div" style="rounded=0;whiteSpace=wrap;html=1;" vertex="1" parent="1">
          <mxGeometry x="2060" y="188" width="120" height="60" as="geometry" />
        </mxCell>
        <mxCell id="79FXgjblU2wBR-eepzPM-223" value="Img" style="rounded=0;whiteSpace=wrap;html=1;" vertex="1" parent="1">
          <mxGeometry x="2060" y="292" width="120" height="60" as="geometry" />
        </mxCell>
        <mxCell id="79FXgjblU2wBR-eepzPM-224" style="edgeStyle=orthogonalEdgeStyle;shape=connector;rounded=0;orthogonalLoop=1;jettySize=auto;html=1;exitX=0.5;exitY=1;exitDx=0;exitDy=0;entryX=0.5;entryY=0;entryDx=0;entryDy=0;labelBackgroundColor=default;strokeColor=default;fontFamily=Helvetica;fontSize=11;fontColor=default;endArrow=none;endFill=0;" edge="1" parent="1" source="79FXgjblU2wBR-eepzPM-225" target="79FXgjblU2wBR-eepzPM-226">
          <mxGeometry relative="1" as="geometry" />
        </mxCell>
        <mxCell id="79FXgjblU2wBR-eepzPM-225" value="Div" style="rounded=0;whiteSpace=wrap;html=1;" vertex="1" parent="1">
          <mxGeometry x="2194" y="188" width="120" height="60" as="geometry" />
        </mxCell>
        <mxCell id="79FXgjblU2wBR-eepzPM-226" value="Img" style="rounded=0;whiteSpace=wrap;html=1;" vertex="1" parent="1">
          <mxGeometry x="2194" y="292" width="120" height="60" as="geometry" />
        </mxCell>
        <mxCell id="79FXgjblU2wBR-eepzPM-232" style="edgeStyle=orthogonalEdgeStyle;shape=connector;rounded=0;orthogonalLoop=1;jettySize=auto;html=1;exitX=0.5;exitY=1;exitDx=0;exitDy=0;entryX=0.5;entryY=0;entryDx=0;entryDy=0;labelBackgroundColor=default;strokeColor=default;fontFamily=Helvetica;fontSize=11;fontColor=default;endArrow=none;endFill=0;" edge="1" parent="1" source="79FXgjblU2wBR-eepzPM-227" target="79FXgjblU2wBR-eepzPM-228">
          <mxGeometry relative="1" as="geometry" />
        </mxCell>
        <mxCell id="79FXgjblU2wBR-eepzPM-227" value="Div" style="rounded=0;whiteSpace=wrap;html=1;" vertex="1" parent="1">
          <mxGeometry x="2060" y="7" width="120" height="60" as="geometry" />
        </mxCell>
        <mxCell id="79FXgjblU2wBR-eepzPM-233" style="edgeStyle=orthogonalEdgeStyle;shape=connector;rounded=0;orthogonalLoop=1;jettySize=auto;html=1;exitX=0.5;exitY=1;exitDx=0;exitDy=0;entryX=0.5;entryY=0;entryDx=0;entryDy=0;labelBackgroundColor=default;strokeColor=default;fontFamily=Helvetica;fontSize=11;fontColor=default;endArrow=none;endFill=0;" edge="1" parent="1" source="79FXgjblU2wBR-eepzPM-228" target="79FXgjblU2wBR-eepzPM-222">
          <mxGeometry relative="1" as="geometry" />
        </mxCell>
        <mxCell id="79FXgjblU2wBR-eepzPM-234" style="edgeStyle=orthogonalEdgeStyle;shape=connector;rounded=0;orthogonalLoop=1;jettySize=auto;html=1;exitX=0.5;exitY=1;exitDx=0;exitDy=0;entryX=0.5;entryY=0;entryDx=0;entryDy=0;labelBackgroundColor=default;strokeColor=default;fontFamily=Helvetica;fontSize=11;fontColor=default;endArrow=none;endFill=0;" edge="1" parent="1" source="79FXgjblU2wBR-eepzPM-228" target="79FXgjblU2wBR-eepzPM-160">
          <mxGeometry relative="1" as="geometry" />
        </mxCell>
        <mxCell id="79FXgjblU2wBR-eepzPM-235" style="edgeStyle=orthogonalEdgeStyle;shape=connector;rounded=0;orthogonalLoop=1;jettySize=auto;html=1;exitX=0.5;exitY=1;exitDx=0;exitDy=0;entryX=0.5;entryY=0;entryDx=0;entryDy=0;labelBackgroundColor=default;strokeColor=default;fontFamily=Helvetica;fontSize=11;fontColor=default;endArrow=none;endFill=0;" edge="1" parent="1" source="79FXgjblU2wBR-eepzPM-228" target="79FXgjblU2wBR-eepzPM-225">
          <mxGeometry relative="1" as="geometry" />
        </mxCell>
        <mxCell id="79FXgjblU2wBR-eepzPM-228" value="Div" style="rounded=0;whiteSpace=wrap;html=1;" vertex="1" parent="1">
          <mxGeometry x="2060" y="97" width="120" height="60" as="geometry" />
        </mxCell>
        <mxCell id="79FXgjblU2wBR-eepzPM-258" style="edgeStyle=orthogonalEdgeStyle;shape=connector;rounded=0;orthogonalLoop=1;jettySize=auto;html=1;exitX=0.5;exitY=1;exitDx=0;exitDy=0;entryX=0.5;entryY=0;entryDx=0;entryDy=0;labelBackgroundColor=default;strokeColor=default;fontFamily=Helvetica;fontSize=11;fontColor=default;endArrow=none;endFill=0;" edge="1" parent="1" source="79FXgjblU2wBR-eepzPM-251" target="79FXgjblU2wBR-eepzPM-252">
          <mxGeometry relative="1" as="geometry" />
        </mxCell>
        <mxCell id="79FXgjblU2wBR-eepzPM-259" style="edgeStyle=orthogonalEdgeStyle;shape=connector;rounded=0;orthogonalLoop=1;jettySize=auto;html=1;exitX=0.5;exitY=1;exitDx=0;exitDy=0;entryX=0.5;entryY=0;entryDx=0;entryDy=0;labelBackgroundColor=default;strokeColor=default;fontFamily=Helvetica;fontSize=11;fontColor=default;endArrow=none;endFill=0;" edge="1" parent="1" source="79FXgjblU2wBR-eepzPM-251" target="79FXgjblU2wBR-eepzPM-253">
          <mxGeometry relative="1" as="geometry" />
        </mxCell>
        <mxCell id="79FXgjblU2wBR-eepzPM-251" value="Div" style="rounded=0;whiteSpace=wrap;html=1;" vertex="1" parent="1">
          <mxGeometry x="2438" y="-322" width="120" height="60" as="geometry" />
        </mxCell>
        <mxCell id="79FXgjblU2wBR-eepzPM-260" style="edgeStyle=orthogonalEdgeStyle;shape=connector;rounded=0;orthogonalLoop=1;jettySize=auto;html=1;exitX=0.5;exitY=1;exitDx=0;exitDy=0;entryX=0.5;entryY=0;entryDx=0;entryDy=0;labelBackgroundColor=default;strokeColor=default;fontFamily=Helvetica;fontSize=11;fontColor=default;endArrow=none;endFill=0;" edge="1" parent="1" source="79FXgjblU2wBR-eepzPM-252" target="79FXgjblU2wBR-eepzPM-254">
          <mxGeometry relative="1" as="geometry" />
        </mxCell>
        <mxCell id="79FXgjblU2wBR-eepzPM-261" style="edgeStyle=orthogonalEdgeStyle;shape=connector;rounded=0;orthogonalLoop=1;jettySize=auto;html=1;exitX=0.5;exitY=1;exitDx=0;exitDy=0;labelBackgroundColor=default;strokeColor=default;fontFamily=Helvetica;fontSize=11;fontColor=default;endArrow=none;endFill=0;" edge="1" parent="1" source="79FXgjblU2wBR-eepzPM-252" target="79FXgjblU2wBR-eepzPM-255">
          <mxGeometry relative="1" as="geometry" />
        </mxCell>
        <mxCell id="79FXgjblU2wBR-eepzPM-252" value="H3" style="rounded=0;whiteSpace=wrap;html=1;" vertex="1" parent="1">
          <mxGeometry x="2430" y="-205" width="120" height="60" as="geometry" />
        </mxCell>
        <mxCell id="79FXgjblU2wBR-eepzPM-263" style="edgeStyle=orthogonalEdgeStyle;shape=connector;rounded=0;orthogonalLoop=1;jettySize=auto;html=1;exitX=0.5;exitY=1;exitDx=0;exitDy=0;labelBackgroundColor=default;strokeColor=default;fontFamily=Helvetica;fontSize=11;fontColor=default;endArrow=none;endFill=0;" edge="1" parent="1" source="79FXgjblU2wBR-eepzPM-253" target="79FXgjblU2wBR-eepzPM-257">
          <mxGeometry relative="1" as="geometry" />
        </mxCell>
        <mxCell id="79FXgjblU2wBR-eepzPM-253" value="P" style="rounded=0;whiteSpace=wrap;html=1;" vertex="1" parent="1">
          <mxGeometry x="2620" y="-205" width="120" height="60" as="geometry" />
        </mxCell>
        <mxCell id="79FXgjblU2wBR-eepzPM-254" value="&quot;The End&quot;" style="rounded=0;whiteSpace=wrap;html=1;" vertex="1" parent="1">
          <mxGeometry x="2351" y="-97" width="120" height="60" as="geometry" />
        </mxCell>
        <mxCell id="79FXgjblU2wBR-eepzPM-262" style="edgeStyle=orthogonalEdgeStyle;shape=connector;rounded=0;orthogonalLoop=1;jettySize=auto;html=1;exitX=0.5;exitY=1;exitDx=0;exitDy=0;labelBackgroundColor=default;strokeColor=default;fontFamily=Helvetica;fontSize=11;fontColor=default;endArrow=none;endFill=0;" edge="1" parent="1" source="79FXgjblU2wBR-eepzPM-255" target="79FXgjblU2wBR-eepzPM-256">
          <mxGeometry relative="1" as="geometry" />
        </mxCell>
        <mxCell id="79FXgjblU2wBR-eepzPM-255" value="Span" style="rounded=0;whiteSpace=wrap;html=1;" vertex="1" parent="1">
          <mxGeometry x="2484" y="-97" width="120" height="60" as="geometry" />
        </mxCell>
        <mxCell id="79FXgjblU2wBR-eepzPM-256" value="&quot;?&quot;" style="rounded=0;whiteSpace=wrap;html=1;" vertex="1" parent="1">
          <mxGeometry x="2484" y="-13" width="120" height="60" as="geometry" />
        </mxCell>
        <mxCell id="79FXgjblU2wBR-eepzPM-257" value="Lots of text" style="rounded=0;whiteSpace=wrap;html=1;" vertex="1" parent="1">
          <mxGeometry x="2620" y="-97" width="120" height="60" as="geometry" />
        </mxCell>
        <mxCell id="79FXgjblU2wBR-eepzPM-265" value="Link" style="rounded=0;whiteSpace=wrap;html=1;fontSize=16;" vertex="1" parent="1">
          <mxGeometry x="983" y="-749" width="120" height="60" as="geometry" />
        </mxCell>
        <mxCell id="79FXgjblU2wBR-eepzPM-266" value="Link" style="rounded=0;whiteSpace=wrap;html=1;fontSize=16;" vertex="1" parent="1">
          <mxGeometry x="1119" y="-749" width="120" height="60" as="geometry" />
        </mxCell>
        <mxCell id="79FXgjblU2wBR-eepzPM-267" value="Link" style="rounded=0;whiteSpace=wrap;html=1;fontSize=16;" vertex="1" parent="1">
          <mxGeometry x="1250.5" y="-749" width="120" height="60" as="geometry" />
        </mxCell>
      </root>
    </mxGraphModel>
  </diagram>
</mxfile>
